<?xml version="1.0" encoding="UTF-8" standalone="no"?>
<!-- Created with Inkscape (http://www.inkscape.org/) -->

<svg
   xmlns:osb="http://www.openswatchbook.org/uri/2009/osb"
   xmlns:dc="http://purl.org/dc/elements/1.1/"
   xmlns:cc="http://creativecommons.org/ns#"
   xmlns:rdf="http://www.w3.org/1999/02/22-rdf-syntax-ns#"
   xmlns:svg="http://www.w3.org/2000/svg"
   xmlns="http://www.w3.org/2000/svg"
   xmlns:sodipodi="http://sodipodi.sourceforge.net/DTD/sodipodi-0.dtd"
   xmlns:inkscape="http://www.inkscape.org/namespaces/inkscape"
   width="81.944283mm"
   height="170.54514mm"
   viewBox="0 0 81.944283 170.54514"
   version="1.1"
   id="svg978"
   sodipodi:docname="classroomDefault.svg"
   inkscape:version="0.92.3 (2405546, 2018-03-11)">
  <defs
     id="defs972">
    <marker
       inkscape:stockid="Arrow1Lstart"
       orient="auto"
       refY="0"
       refX="0"
       id="marker4753"
       style="overflow:visible"
       inkscape:isstock="true">
      <path
         id="path4751"
         d="M 0,0 5,-5 -12.5,0 5,5 Z"
         style="fill-rule:evenodd;stroke:#000000;stroke-width:1.00000003pt"
         transform="matrix(0.8,0,0,0.8,10,0)"
         inkscape:connector-curvature="0" />
    </marker>
    <marker
       inkscape:stockid="Arrow1Mstart"
       orient="auto"
       refY="0"
       refX="0"
       id="Arrow1Mstart"
       style="overflow:visible"
       inkscape:isstock="true">
      <path
         id="path4471"
         d="M 0,0 5,-5 -12.5,0 5,5 Z"
         style="fill-rule:evenodd;stroke:#000000;stroke-width:1.00000003pt"
         transform="matrix(0.4,0,0,0.4,4,0)"
         inkscape:connector-curvature="0" />
    </marker>
    <marker
       inkscape:stockid="Arrow1Lend"
       orient="auto"
       refY="0"
       refX="0"
       id="Arrow1Lend"
       style="overflow:visible"
       inkscape:isstock="true">
      <path
         id="path4468"
         d="M 0,0 5,-5 -12.5,0 5,5 Z"
         style="fill-rule:evenodd;stroke:#000000;stroke-width:1.00000003pt"
         transform="matrix(-0.8,0,0,-0.8,-10,0)"
         inkscape:connector-curvature="0" />
    </marker>
    <marker
       inkscape:stockid="Arrow1Lstart"
       orient="auto"
       refY="0"
       refX="0"
       id="Arrow1Lstart"
       style="overflow:visible"
       inkscape:isstock="true">
      <path
         id="path4465"
         d="M 0,0 5,-5 -12.5,0 5,5 Z"
         style="fill-rule:evenodd;stroke:#000000;stroke-width:1.00000003pt"
         transform="matrix(0.8,0,0,0.8,10,0)"
         inkscape:connector-curvature="0" />
    </marker>
    <inkscape:perspective
       sodipodi:type="inkscape:persp3d"
       inkscape:vp_x="67.0584 : 139.89886 : 1"
       inkscape:vp_y="0 : 261.2088 : 0"
       inkscape:vp_z="201.68626 : 49.316952 : 1"
       inkscape:persp3d-origin="118.54621 : 40.174642 : 1"
       id="perspective4114" />
    <linearGradient
       id="linearGradient3718"
       osb:paint="solid">
      <stop
         style="stop-color:#000000;stop-opacity:1;"
         offset="0"
         id="stop3716" />
    </linearGradient>
    <linearGradient
       id="linearGradient3709"
       osb:paint="solid">
      <stop
         style="stop-color:#000000;stop-opacity:1;"
         offset="0"
         id="stop3707" />
    </linearGradient>
    <linearGradient
       id="linearGradient2258"
       osb:paint="solid">
      <stop
         style="stop-color:#d18d5f;stop-opacity:1;"
         offset="0"
         id="stop2256" />
    </linearGradient>
  </defs>
  <sodipodi:namedview
     id="base"
     pagecolor="#ffffff"
     bordercolor="#666666"
     borderopacity="1.0"
     inkscape:pageopacity="0.0"
     inkscape:pageshadow="2"
     inkscape:zoom="0.5"
     inkscape:cx="301.09676"
     inkscape:cy="435.36858"
     inkscape:document-units="mm"
     inkscape:current-layer="layer1"
     showgrid="false"
     inkscape:window-width="1680"
     inkscape:window-height="982"
     inkscape:window-x="0"
     inkscape:window-y="0"
     inkscape:window-maximized="1"
     fit-margin-top="0"
     fit-margin-left="0"
     fit-margin-right="0"
     fit-margin-bottom="0" />
  <metadata
     id="metadata975">
    <rdf:RDF>
      <cc:Work
         rdf:about="">
        <dc:format>image/svg+xml</dc:format>
        <dc:type
           rdf:resource="http://purl.org/dc/dcmitype/StillImage" />
        <dc:title></dc:title>
      </cc:Work>
    </rdf:RDF>
  </metadata>
  <g
     inkscape:label="Calque 1"
     inkscape:groupmode="layer"
     id="layer1"
     transform="translate(-32.620315,83.034937)">
    <rect
       style="opacity:1;fill:#d3804a;fill-opacity:0.97191013;stroke:none;stroke-width:1.64967132;stroke-linecap:round;stroke-linejoin:bevel;stroke-miterlimit:4;stroke-dasharray:none;stroke-opacity:1;paint-order:normal"
       id="rect2112"
       width="77.289742"
       height="165.89061"
       x="34.947586"
       y="-80.707672"
       ry="0"
       rx="0" />
    <path
       style="opacity:1;fill:none;fill-opacity:0.97191013;stroke:#c97137;stroke-width:4.65452957;stroke-linecap:square;stroke-linejoin:miter;stroke-miterlimit:4;stroke-dasharray:none;stroke-opacity:1;paint-order:normal"
       d="m 34.94758,-80.707672 h 77.28975 v 165.8906 H 34.94758 Z"
       id="rect4448"
       inkscape:connector-curvature="0" />
    <rect
       style="opacity:1;fill:#d3783b;fill-opacity:1;stroke:#c97137;stroke-width:2.80252433;stroke-linecap:square;stroke-linejoin:miter;stroke-miterlimit:4;stroke-dasharray:none;stroke-opacity:1;paint-order:normal"
       id="rect4448-6-0"
       width="58.277809"
       height="79.760445"
       x="44.453552"
       y="-70.753456"
       ry="0" />
    <text
       xml:space="preserve"
       style="font-style:normal;font-weight:normal;font-size:102.83126068px;line-height:1.25;font-family:sans-serif;letter-spacing:0px;word-spacing:0px;fill:#000000;fill-opacity:1;stroke:none;stroke-width:2.57078147"
       x="-23.625021"
       y="255.17772"
       id="text2194"><tspan
         sodipodi:role="line"
         id="tspan2192"
         x="-23.625021"
         y="346.15927"
         style="font-style:normal;font-variant:normal;font-weight:normal;font-stretch:normal;font-family:'Abyssinica SIL';-inkscape-font-specification:'Abyssinica SIL';stroke-width:2.57078147" /></text>
    <g
       id="g4799"
       transform="translate(-35.031407,-183.86648)">
      <g
         style="fill:none;stroke:#666666;stroke-opacity:1"
         transform="matrix(1.245887,0,0,1.245887,-31.010008,-35.137496)"
         id="g2139">
        <path
           style="fill:none;stroke:#666666;stroke-width:0.13846438px;stroke-linecap:butt;stroke-linejoin:miter;stroke-opacity:1"
           d="m 112.07587,130.28337 -6.75164,9.51523"
           id="path2118"
           inkscape:connector-curvature="0" />
        <path
           style="fill:none;stroke:#666666;stroke-width:0.13846438px;stroke-linecap:butt;stroke-linejoin:miter;stroke-opacity:1"
           d="m 112.07587,130.28337 6.75164,9.51523"
           id="path2118-3"
           inkscape:connector-curvature="0" />
      </g>
      <rect
         rx="0"
         ry="1.2537094"
         y="138.97479"
         x="89.502113"
         height="20.731323"
         width="38.243496"
         id="rect2135"
         style="opacity:1;fill:#000000;fill-opacity:0.67977528;stroke:#ffc12a;stroke-width:1.24588704;stroke-opacity:1;paint-order:normal" />
      <circle
         r="1.4568208"
         cy="126.92977"
         cx="108.57233"
         id="path2116"
         style="opacity:1;fill:#000000;fill-opacity:0.97752811;stroke:none;stroke-width:0.72836465;stroke-linecap:round;stroke-linejoin:bevel;stroke-miterlimit:4;stroke-dasharray:none;stroke-opacity:1;paint-order:normal" />
    </g>
    <rect
       style="opacity:1;fill:#d3783b;fill-opacity:0.97254902;stroke:#c97137;stroke-width:2.80299997;stroke-linecap:square;stroke-linejoin:miter;stroke-miterlimit:4;stroke-dasharray:none;stroke-opacity:1;paint-order:normal"
       id="rect4448-6"
       width="59.007328"
       height="52.005978"
       x="44.088791"
       y="23.163158"
       ry="0" />
    <rect
       style="opacity:1;fill:none;fill-opacity:0.97191013;stroke:#a05a2c;stroke-width:1.15100002;stroke-linecap:square;stroke-linejoin:miter;stroke-miterlimit:4;stroke-dasharray:none;stroke-opacity:1;paint-order:normal"
       id="rect4448-2"
       width="71.685394"
       height="160.48625"
       x="37.61879"
       y="-78.036453"
       ry="0" />
    <rect
       style="opacity:1;fill:none;fill-opacity:0.97191013;stroke:#a05a2c;stroke-width:0.69742686;stroke-linecap:square;stroke-linejoin:miter;stroke-miterlimit:4;stroke-dasharray:none;stroke-opacity:1;paint-order:normal"
       id="rect4448-2-5"
       width="54.905045"
       height="76.931259"
       x="46.093155"
       y="-69.335327"
       ry="0" />
    <rect
       style="opacity:1;fill:none;fill-opacity:0.97191013;stroke:#a05a2c;stroke-width:0.5620634;stroke-linecap:square;stroke-linejoin:miter;stroke-miterlimit:4;stroke-dasharray:none;stroke-opacity:1;paint-order:normal"
       id="rect4448-2-5-8"
       width="56.168377"
       height="48.842342"
       x="45.796875"
       y="24.797009"
       ry="0" />
    <g
       id="g2172"
       transform="matrix(0.78845943,0,0,0.78845943,-13.969798,-134.49269)">
      <circle
         r="5.7877603"
         cy="190.33984"
         cx="149.96326"
         id="path2114-6"
         style="opacity:1;fill:#483737;fill-opacity:0.9831461;stroke:none;stroke-width:1.89999998;stroke-linecap:round;stroke-linejoin:bevel;stroke-miterlimit:4;stroke-dasharray:none;stroke-opacity:1;paint-order:normal" />
      <circle
         r="5.7877603"
         cy="190.33984"
         cx="150.89519"
         id="path2114"
         style="opacity:1;fill:#6c5353;fill-opacity:0.9831461;stroke:none;stroke-width:1.89999998;stroke-linecap:round;stroke-linejoin:bevel;stroke-miterlimit:4;stroke-dasharray:none;stroke-opacity:1;paint-order:normal" />
    </g>
    <g
       id="g2168"
       transform="matrix(1.3002758,0,0,1.3002758,-72.770441,-228.38225)"
       style="stroke:#ffffff">
      <path
         inkscape:connector-curvature="0"
         id="path2162"
         d="m 103.60666,148.53599 c -0.31596,-0.079 -0.19189,-0.0731 -0.36541,-0.0731 -0.0244,0 -0.0513,0.0109 -0.0731,0 -0.0308,-0.0154 -0.0423,-0.0577 -0.0731,-0.0731 -0.0436,-0.0218 -0.10259,0.0218 -0.14617,0 -0.0308,-0.0154 -0.0423,-0.0577 -0.0731,-0.0731 -0.0218,-0.0109 -0.0513,0.0109 -0.0731,0 -0.0308,-0.0154 -0.0423,-0.0577 -0.0731,-0.0731 -0.029,-0.0145 -0.2043,0.0149 -0.21924,0 -0.0172,-0.0172 0.0172,-0.0559 0,-0.0731 -0.0172,-0.0172 -0.0487,0 -0.0731,0 -0.0382,0 -0.27311,-0.01 -0.29232,0 -0.0308,0.0154 -0.0423,0.0577 -0.0731,0.0731 -0.12937,0.0647 -0.025,-0.10871 -0.14617,0.0731 -0.0302,0.0453 -0.0346,0.10765 -0.0731,0.14616 -0.0172,0.0172 -0.0513,-0.0109 -0.0731,0 -0.16159,0.0808 -0.0227,0.0454 -0.0731,0.14617 -0.0154,0.0308 -0.0577,0.0423 -0.0731,0.0731 -0.0109,0.0218 0.0109,0.0513 0,0.0731 -0.0154,0.0308 -0.0577,0.0423 -0.0731,0.0731 -0.0218,0.0436 0.0218,0.10259 0,0.14617 -0.0154,0.0308 -0.0622,0.0404 -0.0731,0.0731 -0.0153,0.0458 0,0.4559 0,0.51157 0,0.0421 -0.0133,0.33877 0,0.36541 0.0154,0.0308 0.0577,0.0423 0.0731,0.0731 0.0218,0.0436 -0.0345,0.11171 0,0.14616 0.0172,0.0172 0.0513,-0.0109 0.0731,0 0.30414,0.15207 -0.0781,-0.005 0.0731,0.14616 0.0172,0.0172 0.0558,-0.0172 0.0731,0 0.0172,0.0172 -0.0172,0.0559 0,0.0731 0.0172,0.0172 0.0513,-0.0109 0.0731,0 0.0308,0.0154 0.0423,0.0577 0.0731,0.0731 0.0218,0.0109 0.0513,-0.0109 0.0731,0 0.0877,0.0438 0.13154,0.1754 0.21924,0.21925 0.0218,0.0109 0.0513,-0.0109 0.0731,0 0.0308,0.0154 0.0423,0.0577 0.0731,0.0731 0.0218,0.0109 0.0513,-0.0109 0.0731,0 0.0616,0.0308 0.0808,0.12438 0.14617,0.14616 0.0462,0.0154 0.0999,-0.0154 0.14616,0 0.0327,0.0109 0.0404,0.0622 0.0731,0.0731 0.0462,0.0154 0.0989,-0.0118 0.14616,0 0.0529,0.0132 0.0933,0.0599 0.14617,0.0731 0.0709,0.0177 0.14991,-0.0231 0.21924,0 0.0517,0.0172 0.0945,0.0558 0.14617,0.0731 0.0462,0.0154 0.0974,0 0.14616,0 0.17052,0 0.34105,0 0.51157,0 0.0686,0 0.32353,0.014 0.36541,0 0.0327,-0.0109 0.0423,-0.0577 0.0731,-0.0731 0.0689,-0.0345 0.15034,-0.0386 0.21924,-0.0731 0.0308,-0.0154 0.0444,-0.054 0.0731,-0.0731 0.0906,-0.0604 0.20167,-0.0857 0.29232,-0.14616 0.0287,-0.0191 0.0423,-0.0577 0.0731,-0.0731 0.0689,-0.0345 0.15319,-0.0335 0.21925,-0.0731 0.0591,-0.0354 0.091,-0.10482 0.14616,-0.14617 0.0436,-0.0327 0.10084,-0.0429 0.14616,-0.0731 0.086,-0.0573 0.13656,-0.15723 0.21925,-0.21924 0.0436,-0.0327 0.10084,-0.0429 0.14616,-0.0731 0.0287,-0.0191 0.0487,-0.0487 0.0731,-0.0731 0.0244,-0.0244 0.054,-0.0444 0.0731,-0.0731 0.0302,-0.0453 0.0346,-0.10765 0.0731,-0.14617 0.48721,-0.48721 -0.17052,0.36541 0.21925,-0.21924 0.0745,-0.11177 0.10091,-0.0574 0.21924,-0.14617 0.0551,-0.0413 0.10483,-0.091 0.14617,-0.14616 0.0654,-0.0872 0.0808,-0.20517 0.14616,-0.29232 0.44752,-0.44752 -0.0924,0.12325 0.21925,-0.29233 0.0413,-0.0551 0.10482,-0.091 0.14616,-0.14616 0.0654,-0.0872 0.0857,-0.20168 0.14616,-0.29233 0.0191,-0.0287 0.054,-0.0444 0.0731,-0.0731 0.0604,-0.0906 0.0857,-0.20168 0.14616,-0.29233 0.0191,-0.0287 0.0622,-0.0404 0.0731,-0.0731 0.0154,-0.0462 -0.0218,-0.10258 0,-0.14616 0.0308,-0.0616 0.12057,-0.0822 0.14616,-0.14616 0.0271,-0.0679 -0.0143,-0.14759 0,-0.21925 0.0213,-0.10683 0.11974,-0.18664 0.14616,-0.29233 0.0118,-0.0473 -0.0118,-0.0989 0,-0.14616 0.0132,-0.0529 0.0599,-0.0933 0.0731,-0.14616 0.0121,-0.0485 0,-0.62707 0,-0.65773 0,-0.0244 -0.0109,-0.0513 0,-0.0731 0.0154,-0.0308 0.0663,-0.0393 0.0731,-0.0731 0.0191,-0.0956 0,-0.19488 0,-0.29233 0,-0.0244 0.006,-0.0494 0,-0.0731 -0.0278,-0.11133 -0.0926,-0.37518 -0.21925,-0.43848 -0.0161,-0.008 -0.43307,-0.002 -0.43849,0 -0.14736,0.0491 0.003,0.11966 -0.14616,0.21924 -0.0453,0.0302 -0.10084,0.0429 -0.14616,0.0731 -0.0287,0.0191 -0.0487,0.0487 -0.0731,0.0731 -0.0487,0.0487 -0.0974,0.0974 -0.14617,0.14616 -0.0244,0.0244 -0.054,0.0444 -0.0731,0.0731 -0.0302,0.0453 -0.0404,0.10258 -0.0731,0.14616 -0.3161,0.3161 -0.0115,-0.0194 -0.21925,0.29233 -0.0191,0.0287 -0.0622,0.0404 -0.0731,0.0731 -0.0154,0.0462 0.0154,0.0999 0,0.14616 -0.0109,0.0327 -0.0622,0.0404 -0.0731,0.0731 0,0.33269 0.0344,0.004 -0.0731,0.21925 -0.0218,0.0436 0.0218,0.10258 0,0.14616 -0.0154,0.0308 -0.0622,0.0404 -0.0731,0.0731 -0.0124,0.037 0,0.45183 0,0.51157 0,0.29233 0,0.58465 0,0.87698 0,0.0503 -0.0142,0.39593 0,0.43849 0.0172,0.0517 0.0559,0.0945 0.0731,0.14616 0.0219,0.0658 -0.0219,0.15347 0,0.21925 0.0172,0.0517 0.0559,0.0945 0.0731,0.14616 0.0154,0.0462 -0.0345,0.11171 0,0.14616 0.0172,0.0172 0.0559,-0.0172 0.0731,0 0.0345,0.0344 -0.0218,0.10259 0,0.14616 0.0154,0.0308 0.0577,0.0423 0.0731,0.0731 0.0109,0.0218 -0.0109,0.0513 0,0.0731 0.0154,0.0308 0.0577,0.0423 0.0731,0.0731 0.0327,0.0654 -0.0327,0.15388 0,0.21925 0.0109,0.0218 0.0559,-0.0172 0.0731,0 0.0172,0.0172 -0.0109,0.0513 0,0.0731 0.0308,0.0616 0.11535,0.0845 0.14616,0.14616 0.0218,0.0436 -0.0344,0.11171 0,0.14616 0.0385,0.0385 0.10084,0.0429 0.14616,0.0731 0.0287,0.0191 0.0423,0.0577 0.0731,0.0731 0.0218,0.0109 0.05,-0.008 0.0731,0 0.0517,0.0172 0.0933,0.0599 0.14616,0.0731 0.0473,0.0118 0.0999,-0.0154 0.14616,0 0.0327,0.0109 0.0423,0.0577 0.0731,0.0731 0.0218,0.0109 0.0487,0 0.0731,0 0.0487,0.0244 0.10085,0.0429 0.14617,0.0731 0.0287,0.0191 0.0423,0.0577 0.0731,0.0731 0.0436,0.0218 0.10259,-0.0218 0.14616,0 0.0308,0.0154 0.0423,0.0577 0.0731,0.0731 0.0264,0.0132 0.31458,0 0.36541,0 0.048,0 0.17801,0.0138 0.21925,0 0.0517,-0.0172 0.0945,-0.0558 0.14616,-0.0731 0.0231,-0.008 0.0513,0.0109 0.0731,0 0.33447,-0.16723 -0.31012,0.0303 0.21924,-0.14616 0.0907,-0.0302 0.0796,0.06 0.14617,-0.0731 0.0109,-0.0218 -0.0172,-0.0559 0,-0.0731 0.0974,-0.0974 0.0731,0.12181 0.0731,-0.0731"
         style="fill:none;stroke:#ffffff;stroke-width:0.26458332px;stroke-linecap:butt;stroke-linejoin:miter;stroke-opacity:1" />
      <path
         inkscape:connector-curvature="0"
         id="path2164"
         d="m 110.84173,148.4629 c -0.14617,0 -0.29233,0 -0.43849,0 -0.0244,0 -0.0513,-0.0109 -0.0731,0 -0.0308,0.0154 -0.0423,0.0577 -0.0731,0.0731 -0.0436,0.0218 -0.10719,-0.0292 -0.14617,0 -0.26977,0.20233 -0.16669,0.15601 -0.29232,0.3654 -0.0452,0.0753 -0.0935,0.14898 -0.14617,0.21925 -0.0207,0.0276 -0.0577,0.0423 -0.0731,0.0731 -0.17091,0.038 -0.0446,0.20682 -0.0731,0.29232 -0.0172,0.0517 -0.0559,0.0945 -0.0731,0.14617 -0.0159,0.0476 0,0.45039 0,0.51157 0,0.0249 -0.0132,0.25277 0,0.29232 0.0172,0.0517 0.0559,0.0945 0.0731,0.14617 0.008,0.0231 -0.0109,0.0513 0,0.0731 0.0308,0.0616 0.10794,0.0888 0.14616,0.14616 0.0302,0.0453 0.0346,0.10765 0.0731,0.14617 0.0172,0.0172 0.0513,-0.0109 0.0731,0 0.0877,0.0438 0.13155,0.17539 0.21924,0.21924 0.0436,0.0218 0.10259,-0.0218 0.14617,0 0.0308,0.0154 0.0423,0.0577 0.0731,0.0731 0.0459,0.023 0.24639,-0.023 0.29232,0 0.0308,0.0154 0.0423,0.0577 0.0731,0.0731 0.004,0.002 0.21542,0.002 0.21925,0 0.0308,-0.0154 0.0487,-0.0487 0.0731,-0.0731 0.0244,-0.0244 0.0487,-0.0487 0.0731,-0.0731 0.0385,-0.0385 0.19973,-0.18021 0.21925,-0.21924 0.0109,-0.0218 -0.008,-0.05 0,-0.0731 0.0345,-0.10335 0.1057,-0.19117 0.14616,-0.29232 0.0286,-0.0715 0.0386,-0.15035 0.0731,-0.21925 0.0154,-0.0308 0.0577,-0.0423 0.0731,-0.0731 0.0109,-0.0218 -0.008,-0.05 0,-0.0731 0.0172,-0.0517 0.0599,-0.0933 0.0731,-0.14616 0.0118,-0.0473 0,-0.0974 0,-0.14616 0,-0.17053 0,-0.34105 0,-0.51158 0,-0.0244 0,-0.0487 0,-0.0731 0,-0.0244 0.0172,-0.0559 0,-0.0731 -0.0172,-0.0172 -0.0622,0.0218 -0.0731,0 -0.0218,-0.0436 0,-0.0974 0,-0.14616 0,-0.0244 0.0172,-0.0559 0,-0.0731 -0.0172,-0.0172 -0.0487,0 -0.0731,0 -0.0244,0 -0.0487,0 -0.0731,0 -0.20238,0 0.0562,-0.0731 -0.14616,-0.0731 -0.0268,0 -0.28939,0.003 -0.29233,0 -0.0172,-0.0172 0,-0.0487 0,-0.0731 0,-0.0244 -0.0172,-0.0558 0,-0.0731 0.0172,-0.0172 0.0487,0 0.0731,0 0.22283,0 0.001,0.0741 0.0731,0.14617 0.0172,0.0172 0.0622,-0.0218 0.0731,0 0.0218,0.0436 -0.0154,0.0999 0,0.14616 0.0109,0.0327 0.0577,0.0423 0.0731,0.0731 0.0109,0.0218 -0.008,0.05 0,0.0731 0.17645,0.52936 -0.0211,-0.11522 0.14616,0.21924 0.0109,0.0218 -0.0109,0.0513 0,0.0731 0.0154,0.0308 0.054,0.0444 0.0731,0.0731 0.0302,0.0453 0.0429,0.10084 0.0731,0.14616 0.24238,0.24238 -0.0344,-0.0689 0.0731,0.14617 0.0336,0.0672 0.27385,0.23687 0.29233,0.29232 0.0154,0.0462 -0.0218,0.10259 0,0.14616 0.0109,0.0218 0.0513,-0.0109 0.0731,0 0.0616,0.0308 0.0845,0.11535 0.14616,0.14617 0.0218,0.0109 0.0513,-0.0109 0.0731,0 0.0558,0.0279 0.16975,0.20275 0.21924,0.21924 0.0462,0.0154 0.0999,-0.0154 0.14616,0 0.0327,0.0109 0.0423,0.0577 0.0731,0.0731 0.0218,0.0109 0.0487,0 0.0731,0 0.0487,0 0.0999,-0.0154 0.14616,0 0.0327,0.0109 0.0423,0.0577 0.0731,0.0731 0.0218,0.0109 0.0487,0 0.0731,0 0.0487,0 0.0999,-0.0154 0.14616,0 0.0327,0.0109 0.0423,0.0577 0.0731,0.0731 0.01,0.005 0.4285,0.005 0.43849,0 0.0308,-0.0154 0.0444,-0.054 0.0731,-0.0731 0.0453,-0.0302 0.10084,-0.0429 0.14616,-0.0731 0.0287,-0.0191 0.0404,-0.0622 0.0731,-0.0731 0.0462,-0.0154 0.10259,0.0218 0.14617,0 0.14616,-0.0731 0.10962,-0.14616 0.21924,-0.21924 0.18674,-0.12449 0.13428,-0.009 0.29232,-0.21925 0.0327,-0.0436 0.0404,-0.10258 0.0731,-0.14616 0.062,-0.0827 0.16191,-0.13325 0.21924,-0.21924 0.0302,-0.0453 0.0429,-0.10085 0.0731,-0.14617 0.11149,-0.16723 0.0579,0.0457 0.14617,-0.21924 0.008,-0.0231 0,-0.0487 0,-0.0731 0,-0.0487 0,-0.0974 0,-0.14616 0,-0.1218 0,-0.2436 0,-0.3654 0,-0.24361 0,-0.48721 0,-0.73082 0,-0.0244 0,-0.0487 0,-0.0731 0,-0.0244 -0.0172,-0.0559 0,-0.0731 0.0172,-0.0172 0.0487,0 0.0731,0 0.0244,0 0.0528,-0.0135 0.0731,0 0.086,0.0573 0.13325,0.16191 0.21924,0.21924 0.0453,0.0302 0.10765,0.0346 0.14617,0.0731 0.0385,0.0385 0.0404,0.10259 0.0731,0.14617 0.15805,0.21073 0.10559,0.0947 0.29232,0.21924 0.10054,0.067 0.0752,0.11274 0.14617,0.21925 0.0191,0.0287 0.054,0.0444 0.0731,0.0731 0.0302,0.0453 0.0429,0.10084 0.0731,0.14616 0.0191,0.0287 0.0577,0.0423 0.0731,0.0731 0.0109,0.0218 -0.0109,0.0513 0,0.0731 0.0154,0.0308 0.0622,0.0404 0.0731,0.0731 0.0154,0.0462 -0.0154,0.0999 0,0.14617 -0.0273,0.15921 0.12181,0.0244 0.14617,0.0731 0.0218,0.0436 -0.0154,0.0999 0,0.14616 0.0109,0.0327 0.0577,0.0423 0.0731,0.0731 0.023,0.0459 -0.023,0.2464 0,0.29233 0.0154,0.0308 0.0577,0.0423 0.0731,0.0731 0.0109,0.0218 0,0.0487 0,0.0731 0,0.0244 0,0.0487 0,0.0731 0,0.0244 0,0.0487 0,0.0731 0,0.0244 0.0172,0.0559 0,0.0731 -0.0172,0.0172 -0.0513,-0.0109 -0.0731,0 -0.0308,0.0154 -0.0423,0.0577 -0.0731,0.0731 -0.23424,0.11712 0.0881,-0.11712 -0.14617,0 -0.0308,0.0154 -0.0423,0.0577 -0.0731,0.0731 -0.0218,0.0109 -0.0487,0 -0.0731,0 -0.0244,0 -0.0487,0 -0.0731,0 -0.14616,0 -0.29233,0 -0.43849,0 -0.0974,0 -0.19489,0 -0.29233,0 -0.0244,0 -0.0731,-0.0244 -0.0731,0 0,0.0344 0.0404,0.0622 0.0731,0.0731 0.037,0.0124 0.45183,0 0.51157,0 0.14617,0 0.29233,0 0.43849,0 0.0487,0 0.0999,0.0154 0.14617,0 0.0487,-0.0244 0.0974,-0.0487 0.14616,-0.0731 0,-0.0244 -0.0172,-0.0559 0,-0.0731 0.077,-0.077 0.20517,-0.0808 0.29232,-0.14617 0.007,-0.005 0.26627,-0.25323 0.29233,-0.29232 0.0302,-0.0453 0.0429,-0.10084 0.0731,-0.14616 0.0191,-0.0287 0.054,-0.0444 0.0731,-0.0731 0.0302,-0.0453 0.0487,-0.0974 0.0731,-0.14617 0.0244,-0.0487 0.0599,-0.0933 0.0731,-0.14616 0,-0.48476 -0.0344,0.10335 0.0731,-0.21925 0.0226,-0.0677 -0.0233,-0.29538 0,-0.3654 0.0172,-0.0517 0.0558,-0.0945 0.0731,-0.14617 0.0171,-0.0514 -0.02,-0.34537 0,-0.3654 0.0172,-0.0172 0.0487,0 0.0731,0 0.0244,0 0.0559,-0.0172 0.0731,0 0.0172,0.0172 -0.0172,0.0558 0,0.0731 0.0172,0.0172 0.0513,-0.0109 0.0731,0 0.0616,0.0308 0.0888,0.10794 0.14616,0.14616 0.0453,0.0302 0.10084,0.0429 0.14616,0.0731 0.0287,0.0191 0.0487,0.0487 0.0731,0.0731 0.0487,0.0487 0.0974,0.0974 0.14617,0.14617 0.0487,0.0487 0.10482,0.091 0.14616,0.14616 0.0654,0.0872 0.0857,0.20168 0.14616,0.29232 0.0191,0.0287 0.0622,0.0404 0.0731,0.0731 0.0154,0.0462 -0.0118,0.0989 0,0.14616 0.0132,0.0529 0.0599,0.0933 0.0731,0.14616 0.0166,0.0662 0,0.28051 0,0.36541 0,0.21924 0,0.43849 0,0.65773 0,0.0244 0.0109,0.0513 0,0.0731 -0.0154,0.0308 -0.0487,0.0487 -0.0731,0.0731 -0.0244,0.0244 -0.0423,0.0577 -0.0731,0.0731 -0.0218,0.0109 -0.0513,-0.0109 -0.0731,0 -0.0308,0.0154 -0.0423,0.0577 -0.0731,0.0731 -0.0218,0.0109 -0.05,-0.008 -0.0731,0 -0.0517,0.0172 -0.0933,0.0599 -0.14617,0.0731 -0.0473,0.0118 -0.0974,0 -0.14616,0 -0.1218,0 -0.2436,0 -0.36541,0 -0.0244,0 -0.0487,0 -0.0731,0 -0.0244,0 -0.0731,0.0244 -0.0731,0 0,-0.0244 0.0487,0 0.0731,0 0.0244,0 0.0487,0 0.0731,0 0.0974,0 0.19489,0 0.29233,0 0.16511,0 -0.0327,0.0109 0.21924,-0.0731 0.0231,-0.008 0.0487,0 0.0731,0 0.0487,0 0.0974,0 0.14616,0 0.1218,0 0.2436,0 0.36541,0 0.17052,0 0.34104,0 0.51157,0 0.0487,0 0.0989,0.0118 0.14616,0 0.0528,-0.0132 0.0933,-0.0599 0.14616,-0.0731 0.0709,-0.0177 0.14992,0.0231 0.21925,0 0.0517,-0.0172 0.0933,-0.0599 0.14616,-0.0731 0.0473,-0.0118 0.0999,0.0154 0.14616,0 0.0327,-0.0109 0.0423,-0.0577 0.0731,-0.0731 0.0436,-0.0218 0.0999,0.0154 0.14616,0 0.0517,-0.0172 0.0945,-0.0559 0.14616,-0.0731 0.0231,-0.008 0.0513,0.0109 0.0731,0 0.0308,-0.0154 0.0444,-0.054 0.0731,-0.0731 0.0453,-0.0302 0.10084,-0.0429 0.14617,-0.0731 0.0287,-0.0191 0.0444,-0.054 0.0731,-0.0731 0.0453,-0.0302 0.10084,-0.0429 0.14616,-0.0731 0.0287,-0.0191 0.0423,-0.0577 0.0731,-0.0731 0.0218,-0.0109 0.0513,0.0109 0.0731,0 0.0308,-0.0154 0.0444,-0.054 0.0731,-0.0731 0.1065,-0.071 0.15221,-0.0456 0.21924,-0.14616 0.0302,-0.0453 0.0429,-0.10084 0.0731,-0.14616 0.11193,-0.1679 0.0417,0.0313 0.21925,-0.14616 0.0385,-0.0385 0.0429,-0.10084 0.0731,-0.14617 0.0382,-0.0573 0.11535,-0.0845 0.14616,-0.14616 0.0109,-0.0218 -0.0109,-0.0513 0,-0.0731 0.0154,-0.0308 0.0577,-0.0423 0.0731,-0.0731 0.0109,-0.0217 0,-0.36781 0,-0.43849 0,-0.14616 0,-0.29233 0,-0.43849 0,-0.0329 0.0111,-0.197 0,-0.21925 -0.15207,-0.30414 0.005,0.0781 -0.14616,-0.0731 -0.0172,-0.0172 0.0172,-0.0558 0,-0.0731 -0.003,-0.003 -0.26549,0 -0.29233,0 -0.0344,0 -0.36209,-0.003 -0.3654,0 -0.0172,0.0172 0.0109,0.0513 0,0.0731 -0.0154,0.0308 -0.0577,0.0423 -0.0731,0.0731 -0.0109,0.0218 0.0109,0.0513 0,0.0731 -0.0308,0.0616 -0.11534,0.0845 -0.14616,0.14616 -0.0109,0.0218 0.0109,0.0513 0,0.0731 -0.0154,0.0308 -0.0577,0.0423 -0.0731,0.0731 -0.0109,0.0218 0.008,0.05 0,0.0731 -0.0172,0.0517 -0.0559,0.0945 -0.0731,0.14617 -0.0134,0.0403 0.0156,0.2767 0,0.29232 -0.0172,0.0172 -0.0559,-0.0172 -0.0731,0 -0.0172,0.0172 0,0.0487 0,0.0731 0,0.0244 0,0.0487 0,0.0731 0,0.21925 0,0.4385 0,0.65774 0,0.14616 0,0.29232 0,0.43849 0,0.0244 -0.0172,0.0558 0,0.0731 0.0172,0.0172 0.0559,-0.0172 0.0731,0 0.0172,0.0172 -0.0172,0.0559 0,0.0731 0.0172,0.0172 0.0513,-0.0109 0.0731,0 0.0308,0.0154 0.0423,0.0577 0.0731,0.0731 0.0218,0.0109 0.0487,0 0.0731,0 0.0244,0 0.0487,0 0.0731,0 0.12181,0 0.24361,0 0.36541,0 0.17053,0 0.34105,0 0.51157,0 0.0731,0 0.15388,0.0327 0.21925,0 0.0218,-0.0109 -0.0218,-0.0622 0,-0.0731 0.0654,-0.0327 0.15388,0.0327 0.21924,0 0.0308,-0.0154 0.0423,-0.0577 0.0731,-0.0731 0.0396,-0.0198 0.27233,0.02 0.29233,0 0.0172,-0.0172 -0.0172,-0.0559 0,-0.0731 0.0176,-0.0176 0.27474,0.0176 0.29232,0 0.0172,-0.0172 -0.0172,-0.0559 0,-0.0731 0.0226,-0.0226 0.34278,0.0226 0.36541,0 0.0172,-0.0172 -0.0172,-0.0559 0,-0.0731 0.0172,-0.0172 0.0487,0 0.0731,0 0.0244,0 0.0487,0 0.0731,0"
         style="fill:none;stroke:#ffffff;stroke-width:0.26458332px;stroke-linecap:butt;stroke-linejoin:miter;stroke-opacity:1" />
    </g>
  </g>
</svg>
